# File created by Blade
# Date/Time:  Thu Jan 22 18:25:10 2015
# Frame Rate: 120.000 fps
#------------------------------------------------------
:FULLY-SPECIFIED
:DEGREES
3442
root -2.989394 33.221298 -0.336466 8.335754 -3.125628 2.668777
RightUpLeg -1.925042 -4.802821 -1.871370
RightLeg -0.304806 -0.000000 0.000000
RightFoot -10.894073 -2.747922 3.552990
RightToeBase 5.945022 -0.000000 -0.000000
LeftUpLeg -1.619504 5.191323 0.657952
LeftLeg 0.953062 -0.000000 -0.000000
LeftFoot -9.948538 1.920051 -10.060026
LeftToeBase 8.525303 -0.000000 -0.000000
Spine -7.319948 -3.094972 -0.829328
RightShoulder -21.745965 -19.012148 -27.644580
RightArm 19.603725 19.292753 30.188459
RightForeArm -9.656097 0.000000 7.847510
RightHand 5.963106 0.000000 15.146410
RightHandThumb1 -24.326973 -0.000000 -32.862282
LeftShoulder -27.733826 10.712425 27.890036
LeftArm 15.231778 -20.255102 -35.118028
LeftForeArm 34.453265 -0.000000 -0.144794
LeftHand -4.707072 -0.000000 -10.641665
LeftHandThumb1 -26.253704 0.000000 33.147579
Head -4.729704 8.464044 -1.028305
3443
root -2.993322 33.221708 -0.337968 8.345277 -3.154699 2.653982
RightUpLeg -1.934094 -4.793796 -1.851622
RightLeg -0.321611 -0.000000 0.000000
RightFoot -10.860787 -2.725419 3.546931
RightToeBase 5.937647 -0.000000 -0.000000
LeftUpLeg -1.627112 5.205961 0.672770
LeftLeg 0.954660 -0.000000 -0.000000
LeftFoot -9.971493 1.970894 -9.982302
LeftToeBase 8.623762 -0.000000 -0.000000
Spine -7.331755 -3.070667 -0.846100
RightShoulder -21.756298 -19.051195 -27.645254
RightArm 19.597723 19.205188 30.261213
RightForeArm -9.719768 -0.000000 7.855014
RightHand 6.070837 -0.000000 15.379250
RightHandThumb1 -24.326973 -0.000000 -32.862282
LeftShoulder -27.761672 10.693231 27.881580
LeftArm 15.217622 -20.246421 -35.093278
LeftForeArm 34.519607 -0.000000 -0.135411
LeftHand -4.607463 0.000000 -10.740161
LeftHandThumb1 -26.253704 0.000000 33.147579
Head -4.721725 8.547126 -0.977344
3444
root -2.997012 33.222066 -0.339618 8.342541 -3.181168 2.645909
RightUpLeg -1.936164 -4.768675 -1.840932
RightLeg -0.326184 -0.000000 0.000000
RightFoot -10.854182 -2.725366 3.543529
RightToeBase 5.950613 -0.000000 -0.000000
LeftUpLeg -1.626097 5.226896 0.684001
LeftLeg 0.962167 -0.000000 -0.000000
LeftFoot -9.979492 1.975070 -9.976063
LeftToeBase 8.622522 -0.000000 -0.000000
Spine -7.331818 -3.046050 -0.873860
RightShoulder -21.763706 -19.102134 -27.625338
RightArm 19.617504 19.066942 30.304847
RightForeArm -9.604647 -0.000000 7.824821
RightHand 6.021875 -0.000000 15.288388
RightHandThumb1 -24.326973 -0.000000 -32.862282
LeftShoulder -27.783922 10.717269 27.868185
LeftArm 15.237442 -20.257097 -35.079135
LeftForeArm 34.523346 -0.000000 -0.126410
LeftHand -4.620429 -0.000000 -10.879350
LeftHandThumb1 -26.253704 0.000000 33.147579
Head -4.692471 8.533629 -0.958722
3445
root -3.002344 33.222707 -0.340465 8.327963 -3.190446 2.643987
RightUpLeg -1.916512 -4.772879 -1.831541
RightLeg -0.341585 -0.000000 0.000000
RightFoot -10.840061 -2.709753 3.541401
RightToeBase 5.962468 -0.000000 -0.000000
LeftUpLeg -1.613584 5.231670 0.694640
LeftLeg 0.966746 -0.000000 -0.000000
LeftFoot -9.975599 1.987217 -9.994568
LeftToeBase 8.622586 -0.000000 -0.000000
Spine -7.315074 -3.030216 -0.927231
RightShoulder -21.775286 -19.107400 -27.579450
RightArm 19.600550 18.986982 30.335212
RightForeArm -9.720486 -0.000000 7.819740
RightHand 6.058095 -0.000000 15.375098
RightHandThumb1 -24.326973 -0.000000 -32.862282
LeftShoulder -27.804914 10.742054 27.883656
LeftArm 15.272574 -20.201898 -35.054374
LeftForeArm 34.432736 -0.000000 -0.136739
LeftHand -4.621295 -0.000000 -11.030550
LeftHandThumb1 -26.253704 0.000000 33.147579
Head -4.654000 8.417752 -0.900937
3446
root -3.006890 33.222572 -0.341402 8.324846 -3.201214 2.631769
RightUpLeg -1.910023 -4.757499 -1.814638
RightLeg -0.353960 -0.000000 0.000000
RightFoot -10.818152 -2.704655 3.533519
RightToeBase 5.929020 -0.000000 -0.000000
LeftUpLeg -1.607626 5.233923 0.712900
LeftLeg 0.963886 -0.000000 -0.000000
LeftFoot -9.981991 1.999783 -9.991291
LeftToeBase 8.620053 -0.000000 -0.000000
Spine -7.313854 -3.022385 -0.950233
RightShoulder -21.802080 -19.145809 -27.559183
RightArm 19.630136 18.905425 30.409079
RightForeArm -9.817858 -0.000000 7.837836
RightHand 6.090418 -0.000000 15.598786
RightHandThumb1 -24.326973 -0.000000 -32.862282
LeftShoulder -27.806884 10.748099 27.888483
LeftArm 15.239462 -20.137764 -34.981026
LeftForeArm 34.353509 -0.000000 -0.117180
LeftHand -4.581194 -0.000000 -11.139043
LeftHandThumb1 -26.253704 0.000000 33.147579
Head -4.642284 8.451881 -0.867267
3447
root -3.011585 33.222896 -0.343334 8.327759 -3.210146 2.624494
RightUpLeg -1.911949 -4.745692 -1.800672
RightLeg -0.365053 -0.000000 0.000000
RightFoot -10.813925 -2.699079 3.528881
RightToeBase 6.002005 -0.000000 -0.000000
LeftUpLeg -1.616709 5.246179 0.725531
LeftLeg 0.972473 -0.000000 -0.000000
LeftFoot -9.957279 1.980438 -10.044921
LeftToeBase 8.503090 -0.000000 -0.000000
Spine -7.312374 -3.008539 -0.991128
RightShoulder -21.857046 -19.208850 -27.481390
RightArm 19.697442 18.792127 30.427329
RightForeArm -9.807725 -0.000000 7.821540
RightHand 6.086912 -0.000000 15.673957
RightHandThumb1 -24.326973 -0.000000 -32.862282
LeftShoulder -27.806861 10.733994 27.926123
LeftArm 15.215070 -20.088745 -34.924006
LeftForeArm 34.320226 -0.000000 -0.103466
LeftHand -4.615232 0.000000 -11.184240
LeftHandThumb1 -26.253704 0.000000 33.147579
Head -4.634090 8.422846 -0.821873
3448
root -3.017417 33.223414 -0.344072 8.321756 -3.219635 2.617799
RightUpLeg -1.907735 -4.745330 -1.786480
RightLeg -0.364801 -0.000000 0.000000
RightFoot -10.799236 -2.692546 3.503736
RightToeBase 5.927621 -0.000000 -0.000000
LeftUpLeg -1.608372 5.269972 0.740580
LeftLeg 0.969951 -0.000000 -0.000000
LeftFoot -9.968932 1.988865 -9.975099
LeftToeBase 8.559706 -0.000000 -0.000000
Spine -7.307837 -2.999671 -1.039852
RightShoulder -21.891160 -19.264160 -27.395103
RightArm 19.741730 18.696871 30.439206
RightForeArm -9.859155 -0.000000 7.834280
RightHand 5.996352 -0.000000 15.630550
RightHandThumb1 -24.326973 -0.000000 -32.862282
LeftShoulder -27.809010 10.759258 27.963523
LeftArm 15.202221 -20.049950 -34.867472
LeftForeArm 34.291236 0.000000 -0.083284
LeftHand -4.674821 -0.000000 -11.339414
LeftHandThumb1 -26.253704 0.000000 33.147579
Head -4.593927 8.273458 -0.810924
3449
root -3.022828 33.223487 -0.345533 8.329345 -3.216953 2.610914
RightUpLeg -1.913557 -4.740256 -1.772062
RightLeg -0.371320 -0.000000 0.000000
RightFoot -10.792908 -2.681283 3.529981
RightToeBase 5.954981 -0.000000 -0.000000
LeftUpLeg -1.619058 5.258892 0.755984
LeftLeg 0.970896 -0.000000 -0.000000
LeftFoot -9.971128 2.007695 -9.982015
LeftToeBase 8.593264 -0.000000 -0.000000
Spine -7.317820 -3.003520 -1.081064
RightShoulder -21.941991 -19.311716 -27.321334
RightArm 19.796029 18.550516 30.442719
RightForeArm -9.874035 -0.000000 7.846297
RightHand 6.004586 0.000000 15.794882
RightHandThumb1 -24.326973 -0.000000 -32.862282
LeftShoulder -27.825166 10.804220 27.992735
LeftArm 15.232590 -20.078455 -34.834200
LeftForeArm 34.282226 -0.000000 -0.067112
LeftHand -4.708239 0.000000 -11.346189
LeftHandThumb1 -26.253704 0.000000 33.147579
Head -4.579166 8.224268 -0.768315
3450
root -3.028253 33.224170 -0.346744 8.328664 -3.214514 2.599484
RightUpLeg -1.907897 -4.740268 -1.752990
RightLeg -0.383736 -0.000000 0.000000
RightFoot -10.771473 -2.675813 3.560576
RightToeBase 5.944044 -0.000000 -0.000000
LeftUpLeg -1.617073 5.262248 0.776059
LeftLeg 0.965184 -0.000000 -0.000000
LeftFoot -9.964713 2.006725 -9.982264
LeftToeBase 8.577476 -0.000000 -0.000000
Spine -7.321393 -3.009601 -1.107232
RightShoulder -21.960106 -19.337069 -27.259866
RightArm 19.792344 18.571684 30.479217
RightForeArm -10.008299 -0.000000 7.920034
RightHand 5.983192 -0.000000 15.946849
RightHandThumb1 -24.326973 -0.000000 -32.862282
LeftShoulder -27.814530 10.798421 28.021500
LeftArm 15.190558 -20.008366 -34.727035
LeftForeArm 34.200627 -0.000000 -0.031533
LeftHand -4.682979 -0.000000 -11.310440
LeftHandThumb1 -26.253704 0.000000 33.147579
Head -4.550582 8.204477 -0.755324
